<svg 
	xmlns="http://www.w3.org/2000/svg" 
	xmlns:xlink="http://www.w3.org/1999/xlink" 
	version="1.1" 
	x="0px" 
	y="0px" 
	viewBox="0 0 80 80" 
	xml:space="preserve">
<style type="text/css">
	.st1 {
		fill: none;
		stroke: grey;
		stroke-width: 3;
		stroke-linecap: round;
		stroke-linejoin: round;
		stroke-miterlimit: 10;
	}
</style>
<g>
	<path class="st1" d="M42.86,3.96l9.53,19.3c0.44,0.88,1.28,1.5,2.25,1.64l21.3,3.1c2.46,0.36,3.44,3.37,1.66,5.11L62.19,48.13   c-0.71,0.69-1.03,1.68-0.86,2.65l3.64,21.22c0.42,2.45-2.15,4.31-4.34,3.16L41.57,65.13c-0.87-0.46-1.91-0.46-2.79,0L19.73,75.15   c-2.2,1.15-4.76-0.71-4.34-3.16l3.64-21.22c0.17-0.97-0.16-1.96-0.86-2.65L2.75,33.1c-1.78-1.73-0.8-4.75,1.66-5.11l21.3-3.1   c0.98-0.14,1.82-0.75,2.25-1.64l9.53-19.3C38.59,1.73,41.76,1.73,42.86,3.96z"/>
</g>
</svg>